<svg width="12" height="12" viewBox="0 0 12 12" fill="none" xmlns="http://www.w3.org/2000/svg">
<path d="M7.92163 1.57725L0.748175 8.7507C0.691182 8.8077 0.650398 8.87879 0.630194 8.95681L0.014508 11.328C-0.0257487 11.4833 0.0191068 11.6481 0.132489 11.7616C0.21843 11.8475 0.333848 11.894 0.452281 11.894C0.4902 11.894 0.528346 11.8893 0.565965 11.8796L2.93719 11.2638C3.01521 11.2435 3.08638 11.2027 3.1433 11.1458L10.3166 3.97252C10.3168 3.97237 10.3169 3.9723 10.317 3.97222C10.3171 3.97214 10.3172 3.97192 10.3173 3.97184L11.7614 2.52773C11.9381 2.3511 11.9381 2.0647 11.7615 1.88814L10.0061 0.13253C9.9212 0.0476446 9.80623 0 9.68622 0C9.56627 0 9.45123 0.0476446 9.36642 0.13253L7.92238 1.57657C7.92223 1.57672 7.92208 1.5768 7.92201 1.57687C7.92193 1.57695 7.92178 1.57717 7.92163 1.57725ZM2.59079 10.4191L1.08357 10.8105L1.47491 9.30329L8.2418 2.5364L9.3576 3.65228L2.59079 10.4191ZM9.68622 1.09198L10.802 2.20786L9.99726 3.01262L8.88146 1.89674L9.68622 1.09198Z" fill="#03A9F4"/>
</svg>
