<svg width="135" height="117" viewBox="0 0 135 117" version="1.1" xmlns="http://www.w3.org/2000/svg" xmlns:xlink="http://www.w3.org/1999/xlink">
<title>XMLID 2</title>
<desc>Created using Figma</desc>
<g id="Canvas" transform="translate(4918 -8466)">
<g id="XMLID 2">
<g id="XMLID 61" style="mix-blend-mode:difference">
<g id="Vector">
<use xlink:href="#path0_fill" transform="translate(-4917.09 8484.82)" fill="#B0BEC5"/>
</g>
<g id="XMLID 72">
<use xlink:href="#path1_fill" transform="translate(-4852.56 8468.37)" fill="#9B847E"/>
</g>
<g id="XMLID 71">
<use xlink:href="#path2_fill" transform="translate(-4827.33 8533.13)" fill="#9B9A9A"/>
</g>
<g id="XMLID 70">
<use xlink:href="#path3_fill" transform="translate(-4803.67 8554.1)" fill="#9B9A9A"/>
</g>
<g id="XMLID 69">
<use xlink:href="#path4_fill" transform="translate(-4812.31 8514.65)" fill="#9B9A9A"/>
</g>
<g id="XMLID 68">
<use xlink:href="#path5_fill" transform="translate(-4811.57 8537.52)" fill="#9B9A9A"/>
</g>
<g id="XMLID 65">
<use xlink:href="#path6_fill" transform="translate(-4894.76 8467.81)" fill="#9B9A9A"/>
</g>
<g id="XMLID 62">
<use xlink:href="#path7_fill" transform="translate(-4795.76 8480.15)" fill="#9B847E"/>
</g>
</g>
<g id="XMLID 60">
<use xlink:href="#path8_fill" transform="translate(-4858.54 8495.76)" fill="#B2ADBC"/>
</g>
<g id="XMLID 58">
<use xlink:href="#path9_fill" transform="translate(-4824.28 8525.56)" fill="#B2ADBC"/>
</g>
<g id="XMLID 57">
<use xlink:href="#path10_fill" transform="translate(-4875.47 8482.07)" fill="#B2ADBC"/>
</g>
<g id="XMLID 56">
<use xlink:href="#path11_fill" transform="translate(-4838.46 8537)" fill="#9B847E"/>
</g>
<g id="XMLID 55">
<use xlink:href="#path12_fill" transform="translate(-4809.64 8548.81)" fill="#9B847E"/>
</g>
<g id="XMLID 54">
<use xlink:href="#path13_fill" transform="translate(-4894.79 8485.86)" fill="#9B847E"/>
</g>
<g id="XMLID 42">
<g id="XMLID 53">
<use xlink:href="#path14_fill" transform="translate(-4871.39 8485.41)" fill="#B5B5B6"/>
</g>
<g id="XMLID 52">
<use xlink:href="#path15_fill" transform="translate(-4853.96 8479.23)" fill="#B5B5B6"/>
</g>
<g id="XMLID 51">
<use xlink:href="#path16_fill" transform="translate(-4879.04 8491.94)" fill="#F26E42"/>
</g>
<g id="XMLID 50">
<use xlink:href="#path17_fill" transform="translate(-4872.74 8491.98)" fill="#F26E42"/>
</g>
<g id="XMLID 49">
<use xlink:href="#path18_fill" transform="translate(-4811.55 8542.56)" fill="#B5B5B6"/>
</g>
<g id="XMLID 48">
<use xlink:href="#path19_fill" transform="translate(-4804.04 8555.35)" fill="#B5B5B6"/>
</g>
<g id="XMLID 47">
<use xlink:href="#path20_fill" transform="translate(-4802.88 8531.59)" fill="#B5B5B6"/>
</g>
<g id="XMLID 46">
<use xlink:href="#path21_fill" transform="translate(-4852.86 8515.76)" fill="#B2ADBC"/>
</g>
<g id="XMLID 45">
<use xlink:href="#path22_fill" transform="translate(-4819.52 8529.42)" fill="#B2ADBC"/>
</g>
<g id="XMLID 44">
<use xlink:href="#path22_fill" transform="translate(-4819.52 8529.42)" fill="#B2ADBC"/>
</g>
<g id="XMLID 43">
<use xlink:href="#path23_fill" transform="translate(-4819.1 8537.66)" fill="#B5B5B6"/>
</g>
</g>
<g id="XMLID 33">
<g id="XMLID 40">
<use xlink:href="#path24_fill" transform="translate(-4811.78 8552.55)" fill="#6C7379"/>
</g>
<g id="XMLID 39">
<use xlink:href="#path25_fill" transform="translate(-4820.42 8551.59)" fill="#6C7379"/>
</g>
<g id="XMLID 38">
<use xlink:href="#path26_fill" transform="translate(-4840.08 8540.6)" fill="#6C7379"/>
</g>
<g id="XMLID 37">
<use xlink:href="#path27_fill" transform="translate(-4872.62 8492.87)" fill="#6C7379"/>
</g>
<g id="XMLID 36">
<use xlink:href="#path28_fill" transform="translate(-4881.93 8491.19)" fill="#6C7379"/>
</g>
</g>
<g id="XMLID 18">
<g id="XMLID 32">
<use xlink:href="#path29_fill" transform="translate(-4806.11 8515.02)" fill="#BCBCBC"/>
</g>
<g id="XMLID 31">
<use xlink:href="#path30_fill" transform="translate(-4811.63 8523.38)" fill="#BCBCBC"/>
</g>
<g id="XMLID 30">
<use xlink:href="#path31_fill" transform="translate(-4804.69 8539.34)" fill="#BCBCBC"/>
</g>
<g id="XMLID 29">
<use xlink:href="#path32_fill" transform="translate(-4818.03 8543.56)" fill="#A79590"/>
</g>
<g id="XMLID 28">
<use xlink:href="#path33_fill" transform="translate(-4814.62 8563.85)" fill="#A79590"/>
</g>
<g id="XMLID 27">
<use xlink:href="#path34_fill" transform="translate(-4836.71 8557.06)" fill="#A79590"/>
</g>
<g id="XMLID 26">
<use xlink:href="#path35_fill" transform="translate(-4837.43 8539.25)" fill="#A79590"/>
</g>
<g id="XMLID 25">
<use xlink:href="#path36_fill" transform="translate(-4806.22 8551.77)" fill="#A79590"/>
</g>
<g id="XMLID 24">
<use xlink:href="#path37_fill" transform="translate(-4799.78 8559.79)" fill="#A79590"/>
</g>
<g id="XMLID 23">
<use xlink:href="#path38_fill" transform="translate(-4876.46 8487)" fill="#A79590"/>
</g>
<g id="XMLID 22">
<use xlink:href="#path39_fill" transform="translate(-4892.39 8495.08)" fill="#A79590"/>
</g>
<g id="XMLID 21">
<use xlink:href="#path40_fill" transform="translate(-4872.48 8479.31)" fill="#BCBCBC"/>
</g>
<g id="XMLID 20">
<use xlink:href="#path41_fill" transform="translate(-4829 8476.5)" fill="#BCBCBC"/>
</g>
<g id="XMLID 19">
<use xlink:href="#path42_fill" transform="translate(-4802.14 8478.9)" fill="#BCBCBC"/>
</g>
</g>
<g id="XMLID 17">
<use xlink:href="#path43_fill" transform="translate(-4853.17 8472.51)" fill="#AE2E26"/>
</g>
<g id="XMLID 16">
<use xlink:href="#path44_fill" transform="translate(-4796.11 8487.47)" fill="#AE2E26"/>
</g>
<g id="XMLID 13">
<g id="XMLID 15">
<use xlink:href="#path45_fill" transform="translate(-4846.15 8469.17)" fill="#E0958B"/>
</g>
<g id="XMLID 14">
<use xlink:href="#path46_fill" transform="translate(-4791.81 8481.71)" fill="#E0958B"/>
</g>
</g>
<g id="XMLID 3">
<g id="XMLID 12">
<use xlink:href="#path47_fill" transform="translate(-4847.69 8471.18)" fill="#010101"/>
</g>
<g id="XMLID 11">
<use xlink:href="#path48_fill" transform="translate(-4803.46 8538.64)" fill="#010101"/>
</g>
<g id="XMLID 10">
<use xlink:href="#path49_fill" transform="translate(-4789.81 8484.44)" fill="#010101"/>
</g>
<g id="XMLID 4">
<use xlink:href="#path50_fill" transform="translate(-4916.97 8466.5)" fill="#010101"/>
</g>
</g>
</g>
</g>
<defs>
<path id="path0_fill" d="M 125.875 97.6975C 51.9543 98.3279 18.6781 88.5364 0 20.5557L 46.6546 0L 114.558 76.2179L 125.875 97.6975Z"/>
<path id="path1_fill" d="M 17.3772 9.19357C 17.3772 6.74536 16.3148 4.29714 14.5133 2.6804C 12.7117 1.06366 10.5869 0.60173 8.32343 0.0936108C 8.27724 0.0936108 8.23105 0.047418 8.18485 0.047418C 3.98132 -0.414509 0.239715 2.54182 0.00875212 7.02251C -0.0374406 8.08494 0.101139 9.14738 0.378295 10.0712C 1.44073 13.4433 4.53563 15.9377 8.09247 16.6306C 12.8041 17.5082 17.331 14.1824 17.3772 9.19357ZM 5.82903 12.9352C 4.44325 10.9951 4.7666 8.08494 5.50568 5.86769C 5.82903 4.89765 6.29096 3.9738 6.93765 3.3271C 7.07623 3.18852 7.3072 2.81898 7.53816 2.81898C 8.36963 2.72659 7.53816 4.99003 7.49196 5.35958C 7.12242 6.88393 6.6605 8.59306 6.70669 10.1636C 6.70669 11.1799 6.70669 11.688 6.98385 12.7504C 7.12243 13.4895 6.47573 13.859 5.82903 12.9352Z"/>
<path id="path2_fill" d="M 0.190935 0C -0.0862206 0 -0.0400279 0.415731 0.190935 0.415731C 0.468092 0.415731 0.421899 0 0.190935 0Z"/>
<path id="path3_fill" d="M 0.230963 0.0461927C 0.415734 1.06243 0.323352 2.12486 0.0461955 3.1411C 0.0461955 3.18729 0.0461927 3.1873 0 3.1873C 0.739083 3.88019 1.10862 4.98881 0.69289 5.91266C 1.94009 7.06748 2.95633 8.31468 3.83399 9.70046C 3.64922 9.4233 3.83399 9.05377 4.20354 9.09996C 4.85023 9.23854 5.35836 9.14615 5.63551 8.49945C 5.86648 7.99133 5.82028 7.39083 5.58932 6.88271C 5.26597 6.05124 4.52688 5.49693 3.83399 5.035C 3.7878 4.98881 3.74161 4.94262 3.74161 4.94262C 3.04872 4.57308 2.63299 3.83399 2.12487 3.27968C 1.61675 2.63298 1.01624 2.03248 0.69289 1.24721C 0.646697 1.15482 0.69289 1.06243 0.69289 1.01624C 0.600505 0.692893 0.508119 0.369539 0.461927 -2.81938e-06L 0.230963 0.0461927Z"/>
<path id="path4_fill" d="M 9.79285 22.2649C 12.1025 23.4659 14.5507 24.2973 17.1375 24.5745C 19.8167 24.8517 22.1725 24.1588 24.7593 24.0664C 24.0202 21.9415 23.743 19.6781 22.9578 17.5532C 22.0801 15.1512 20.9253 12.8416 19.5395 10.7167C 16.8603 6.55936 13.3497 3.00252 9.23854 0.277155C 9.14615 0.18477 9.05376 0.0923854 9.05376 0C 7.89895 0.554312 6.79033 1.15482 5.6817 1.80152C 3.64922 3.04872 1.75532 4.52688 1.40969e-06 6.05124C 4.15734 7.15986 9.14615 10.1624 11.5482 13.6268C 11.6406 13.673 11.7329 13.7654 11.7329 13.904C 12.0563 16.8141 11.04 19.6781 9.51569 22.1725C 9.60807 22.2187 9.70046 22.2187 9.79285 22.2649Z"/>
<path id="path5_fill" d="M 7.20606 14.0888C 7.66798 14.874 7.99133 15.7517 8.12991 16.6294L 8.36088 16.5832C 8.1761 15.4745 8.1761 14.1812 8.31468 13.0263C 7.80656 9.23853 8.31468 4.94262 9.33092 1.38578C 9.42331 1.10862 9.65427 1.06243 9.83904 1.15482L 9.88523 1.01624C 9.4695 0.831467 9.05377 0.600506 8.63803 0.369543C 8.49946 0.277157 8.40707 0.138578 8.36088 0C 8.03753 0.508119 7.66798 1.01624 7.29844 1.47816C 6.23601 2.91014 5.035 4.20353 3.83399 5.49693C 2.72537 6.65174 1.66293 8.03752 -2.81938e-06 8.1761C 0.554309 9.4233 0.73908 10.9477 0.692887 12.3334C 0.646695 12.8878 0.646696 13.4421 0.600503 13.9964C 1.66294 14.874 2.4944 15.9827 3.23348 17.0913C 3.37206 17.0451 3.55684 16.9989 3.74161 16.9527C 3.69541 16.4446 3.64922 15.9365 3.51064 15.4284C 3.32587 14.7817 3.00252 14.135 2.67917 13.5806C 2.5406 13.3497 2.86395 13.0725 3.09491 13.2111C 4.15734 13.9964 5.035 15.7517 4.52688 17.1375C 4.75784 17.4146 4.61927 17.969 4.11115 17.9228C 2.72537 17.8304 2.63298 19.4471 3.04872 20.371C 3.37207 21.1101 4.06496 21.8491 4.71166 22.3111C 5.45074 22.8192 6.42079 23.1887 7.25225 22.5882C 7.25225 22.5882 7.29844 22.5882 7.29844 22.542C 7.34463 22.2649 7.52941 22.0339 7.76037 21.9877C 8.03753 21.2948 7.39083 20.5096 7.15986 19.7705C 7.15986 19.7243 7.15986 19.6781 7.15986 19.6319C 7.11367 19.5395 7.11367 19.4471 7.15986 19.3085C 7.66798 17.507 7.29844 15.6131 6.23601 14.0426C 5.21977 12.6106 3.88018 12.3334 2.58679 11.4096C 2.40202 11.271 2.4944 10.9015 2.67917 10.9015C 4.48069 10.7167 6.3284 12.6568 7.20606 14.0888Z"/>
<path id="path6_fill" d="M 53.11 -4.40528e-08C 57.5907 1.01624 60.9166 5.6817 60.6394 10.2548C 60.2699 15.6131 55.3273 19.3547 50.1075 18.3847C 46.1811 17.6918 42.8091 14.9202 41.5157 11.3172C 40.5918 11.5944 39.5756 11.6867 38.6055 11.8715C 37.6817 12.0563 36.7578 12.2873 35.7878 12.4258C 37.3583 13.1649 38.7903 14.0426 39.9451 15.105C 40.1761 15.2898 39.9451 15.7517 39.668 15.6131C 37.1736 14.5045 34.8177 13.1187 32.1847 12.2411C 29.3208 11.3172 26.4569 10.9939 23.5005 10.6705C 23.5005 10.6705 23.5005 10.6705 23.4543 10.6705C 21.6066 11.7329 19.6203 12.5182 17.9112 13.8116C 16.1559 15.105 14.7239 16.6294 13.2919 18.2461C 13.9848 18.1537 14.6777 18.1075 15.3706 18.1999C 15.7402 18.1999 16.1559 18.1999 16.5254 18.1999C 16.8488 18.1999 16.9874 18.7542 16.6178 18.7542C 15.6478 18.8466 14.6777 18.9852 13.7077 19.0314C 9.41176 20.0476 6.36304 22.2187 3.12955 25.175C 3.12955 25.175 3.12955 25.175 3.08336 25.175C 3.03717 25.406 2.80621 25.6369 2.52905 25.5445C 1.51281 25.2212 0.311801 25.4984 0.0346452 26.6532C -0.0115475 26.9303 -0.0115475 27.2075 0.0346452 27.4846C 0.219416 28.2699 0.819921 29.009 1.42043 29.3785C 2.89859 30.3024 6.17827 29.3785 5.48538 27.1613C 5.43919 27.0689 5.48538 26.9765 5.57777 26.8841C 5.393 26.7918 5.30061 26.4222 5.57777 26.2836C 7.97979 24.8055 10.6128 22.4958 13.6153 22.9578C 13.7077 22.9116 13.8001 22.9116 13.8924 22.9578C 15.9249 23.743 17.3107 25.6831 18.4193 27.4846C 19.7127 29.6095 20.9599 32.0577 21.4219 34.5521C 21.5142 34.6907 21.5604 34.9217 21.3757 35.0602C 20.7752 35.6607 19.9437 36.3536 20.3132 37.3237C 20.6828 38.2013 21.8376 38.8018 22.6691 38.9866C 23.7315 39.2176 24.9787 39.0328 25.4406 37.9242C 26.0411 36.5846 25.0249 36.1689 24.101 35.6607C 23.9625 35.5684 23.8701 35.3374 24.0086 35.1988C 23.8239 35.245 23.5929 35.1526 23.5467 34.9217C 22.5767 31.642 21.699 28.2699 20.9599 24.944C 20.8675 24.5745 21.1447 24.3897 21.4219 24.4359C 21.5142 24.2973 21.6528 24.205 21.8376 24.205C 25.2558 24.3897 28.6741 25.6369 31.1685 27.9466C 31.3995 28.1775 31.1685 28.5471 30.8914 28.4547C 31.8152 30.6257 32.8314 32.7506 33.9401 34.8755C 35.1873 34.7831 36.2959 34.275 36.2497 32.612C 36.2035 30.9953 35.0025 30.21 33.8015 29.3785C 33.7091 29.3323 33.6629 29.24 33.6629 29.1476C 33.6167 29.1014 33.5705 29.0552 33.5705 29.009C 31.4457 24.1588 28.3046 21.4334 23.5005 19.5395C 23.5005 19.5395 23.5005 19.5395 23.4543 19.5395C 22.9 19.4009 22.3919 19.17 21.8376 19.0776C 21.3295 18.939 20.729 18.939 20.2208 18.708C 19.9437 18.5695 19.9899 18.2461 20.267 18.1537C 20.4518 18.1075 20.6828 18.1075 20.8675 18.1075C 21.3295 17.4608 22.0686 16.9989 22.6229 16.3984C 23.1772 15.7517 23.6391 15.0588 24.2396 14.5045C 24.2396 14.5045 24.2858 14.5045 24.2858 14.4583C 24.0548 14.1812 24.3782 13.7654 24.7477 13.9502C 26.1335 14.7817 27.3807 15.7979 28.8127 16.537C 30.2447 17.2761 31.8152 17.6918 33.2472 18.3385C 33.4781 18.4309 33.3858 18.8004 33.1548 18.8004C 30.9837 18.6156 28.3969 17.5532 26.3645 16.1674C 25.9025 16.4446 25.3944 16.6294 24.8863 16.8603C 24.2858 17.0913 23.6391 17.4146 23.0386 17.6456C 22.9462 17.6918 22.8076 17.6456 22.7614 17.5994C 22.5305 17.8304 22.2533 18.1075 21.9762 18.2923C 22.0224 18.2923 22.0686 18.2923 22.1147 18.3385C 22.3919 18.3847 22.6691 18.4771 22.9462 18.5695C 22.9924 18.5233 23.0848 18.5233 23.1772 18.5233C 28.2122 19.2623 32.97 23.9278 34.3096 28.6856C 36.2497 29.2862 37.5893 31.411 37.1274 33.3973C 36.8502 34.5983 35.6954 35.7531 34.4944 35.8455C 37.5893 41.6196 41.2847 47.0703 45.5806 52.1053C 48.7217 55.7546 52.0938 59.0804 55.7892 62.1753C 59.4846 65.3164 63.5958 67.7646 67.4298 70.721C 69.9704 71.1367 72.511 71.922 74.6358 73.0768C 75.6059 69.7971 77.1302 66.7022 79.1627 63.9769C 78.285 64.2078 77.1764 64.1616 76.6221 63.8845C 76.3449 63.7459 76.3449 63.284 76.7145 63.2378C 77.315 63.1916 77.9155 63.284 78.516 63.1916C 79.1165 63.0992 79.6708 62.6835 80.2251 62.6373C 80.5485 62.2677 80.8718 61.852 81.2414 61.4824C 81.4723 61.2515 81.8881 61.621 81.7033 61.852C 78.7932 65.3164 76.6683 69.1504 75.3749 73.4464C 75.8368 73.7235 76.2526 74.0007 76.6221 74.2778C 76.8531 74.4626 76.6683 74.8783 76.3911 74.7859C 75.9292 74.6474 75.4673 74.4626 75.0054 74.2778C 74.8206 74.3702 74.5896 74.2778 74.451 74.093C 72.7881 73.4464 71.1714 72.7073 69.4161 72.2915C 68.677 72.1068 67.9379 71.9682 67.245 71.8296C 65.3511 71.5063 63.411 71.4139 61.4247 71.3215C 61.1938 71.3215 61.0552 71.1829 60.9628 71.0443C 60.3161 70.6286 59.808 70.1205 59.1613 69.7047C 58.607 69.3814 58.0065 69.1042 57.406 69.5662C 57.0364 69.8433 56.8054 70.4438 56.7593 70.8596C 56.4821 72.7073 58.4684 74.0469 59.9004 72.6611C 60.1313 72.4301 60.3623 72.4763 60.5471 72.6149C 60.6394 72.5687 60.7318 72.5225 60.8704 72.5225C 64.612 72.9844 68.677 74.8783 70.8018 78.1118C 70.848 78.2042 70.848 78.2966 70.8018 78.3428C 71.1252 78.2504 71.4023 78.158 71.7257 78.0656C 72.0952 77.927 72.28 78.4813 71.9105 78.6661C 67.476 80.791 63.411 83.0544 59.6232 86.1493C 59.4846 86.2879 59.346 86.2879 59.2075 86.2417C 59.0227 86.3803 58.6532 86.4265 58.4684 86.1493C 57.7755 85.2717 56.8054 86.4265 56.6207 86.9808C 56.4821 87.3965 56.4821 87.9047 56.5283 88.3204C 56.5745 89.429 56.8516 90.63 57.6369 91.4153C 58.4222 92.2006 59.808 92.5701 60.7318 91.7386C 61.4247 91.0919 61.2399 90.4453 61.3785 89.6138C 61.3785 89.5214 61.4709 89.4752 61.5171 89.429C 61.4709 89.2442 61.5171 89.0595 61.7481 88.9671C 66.3211 86.2417 71.6333 83.1468 77.1302 83.4702C 77.546 83.4702 77.4998 84.0245 77.1302 84.0707C 77.0378 84.0707 76.9455 84.1169 76.8531 84.1169C 79.2089 86.9346 79.6246 91.3691 78.3774 94.7412C 78.3774 94.7412 78.3774 94.7874 78.3312 94.7874C 78.4236 94.9259 78.4236 95.1569 78.285 95.2955C 76.7607 96.7275 77.546 99.1295 79.6708 99.2681C 80.7333 99.3604 82.1652 98.8061 82.5348 97.7437C 82.9967 96.5427 81.6109 96.3117 81.0104 95.6188C 80.8718 95.4803 80.918 95.2493 81.149 95.2031C 81.149 95.1569 81.149 95.1107 81.149 95.0645C 81.4261 91.9234 82.2114 88.7823 82.581 85.595C 82.6734 84.9483 82.7657 84.2554 82.8119 83.5625C 83.1353 80.56 83.1353 77.2803 79.948 75.8946C 79.5784 75.756 79.717 75.2017 80.1328 75.2479C 81.38 75.4788 82.2576 76.1717 82.8119 77.0956C 85.5835 76.0793 88.0779 72.4301 89.7408 70.1667C 91.8657 67.2565 93.0205 64.1616 93.3901 60.5586C 91.5885 59.1728 89.9718 57.5561 88.0317 56.3551C 85.9992 55.1079 83.8744 54.2764 81.7033 53.3525C 79.4861 55.385 77.4074 57.6023 75.4673 59.9581C 75.1901 60.2814 74.682 59.8657 74.913 59.5424C 77.7307 55.2002 81.7495 51.5972 86.0454 48.7333C 87.7084 47.6246 89.5099 46.5622 91.3114 45.6846C 91.6809 45.4998 92.0505 45.315 92.4662 45.1302C 95.0992 43.9292 97.4088 43.144 99.2565 40.8805C 96.5774 40.1414 94.3601 38.4323 92.0043 36.9541C 88.586 34.7831 84.8906 33.1663 81.0104 32.0577C 77.0378 30.9029 73.0191 30.5796 68.9079 30.3948C 65.1663 30.2562 61.009 30.2562 57.5445 28.5933C 57.0364 28.3623 57.3598 27.577 57.8679 27.7156C 65.3511 29.8405 73.1577 28.8704 80.6871 30.8567C 84.0591 31.7344 87.3388 33.074 90.3875 34.7831C 93.4824 36.4922 96.3002 39.1252 99.7185 40.1414C 99.7646 40.0029 99.857 39.9567 100.042 39.9567C 102.398 40.28 101.335 33.3973 101.566 32.0115C 101.612 31.8268 101.797 31.7806 101.936 31.8268L 101.936 31.7806C 101.751 31.7344 101.659 31.5958 101.612 31.4572C 98.7946 28.4547 97.455 24.1588 98.0555 20.0476C 98.5174 16.8141 100.55 12.3334 104.107 11.5944C 102.49 10.5319 100.966 9.88523 98.7022 10.07C 96.1154 10.2548 92.8357 10.9939 91.0804 13.0725C 90.8033 13.3959 90.4799 13.1649 90.3875 12.8416C 86.3226 11.3172 82.5348 9.42331 78.285 8.45326C 74.0353 7.43702 69.7394 7.06748 65.3973 7.11367C 65.2125 7.11367 65.0739 7.02129 64.9816 6.88271C 64.9354 7.06748 64.7044 7.15986 64.5196 7.02129C 62.5795 5.12739 61.009 3.00252 58.607 1.57055C 56.8516 0.554312 55.0501 0.0923853 53.11 -4.40528e-08ZM 67.6145 65.7322C 67.3836 65.7322 67.3374 65.3164 67.6145 65.3164C 67.8455 65.3164 67.8917 65.7322 67.6145 65.7322Z"/>
<path id="path7_fill" d="M 0.0272732 8.77661C -0.20369 12.3796 1.0435 15.7517 3.35314 18.4309C 7.46429 17.3223 10.8364 14.3197 11.2521 9.83904C 11.6678 5.35835 8.80388 2.30963 5.33943 -3.52422e-07C 2.15214 2.17106 0.258237 4.85023 0.0272732 8.77661ZM 6.63282 14.8279C 6.40186 15.1512 5.84755 14.874 5.98613 14.4583C 6.67902 12.8416 7.3719 11.4096 7.55667 9.60808C 7.64906 8.45326 7.55668 7.34464 7.37191 6.28221C 7.23333 5.77409 7.04856 5.26597 6.90998 4.71165C 6.86379 4.52688 6.95617 4.4345 7.09475 4.3883C 7.23333 4.24973 7.51048 4.24973 7.60287 4.4345C 7.64906 4.52688 7.69525 4.61927 7.74144 4.71165C 9.82011 7.11367 9.45057 12.5182 6.86378 14.4583C 6.7714 14.5969 6.72521 14.7355 6.63282 14.8279Z"/>
<path id="path8_fill" d="M 62.7668 12.4739C 62.1201 12.1967 61.5196 11.9195 60.8729 11.6886C 60.5958 11.5962 60.3648 11.7348 60.2724 11.9657C 55.8379 8.91702 51.1725 6.00688 46.0451 4.39014C 43.0888 3.46628 40.0862 3.05055 36.9913 2.91197C 36.3908 2.86578 35.7441 2.86578 35.0974 2.81958C 35.1898 2.63481 35.0512 2.40385 34.8665 2.35766C 32.603 1.94192 29.97 2.21908 27.6604 2.35766C 25.2584 1.98811 23.1335 1.06426 20.7777 0.417566C 18.1909 -0.321517 15.8351 -0.0443627 13.3869 0.971876C 10.9849 1.98812 8.81379 3.46628 6.78132 5.08303C 4.56407 6.83835 1.70013 8.59367 0.0371894 10.9495C -0.055196 11.0419 0.0371872 11.2267 0.175765 11.1805C 0.360536 11.0881 0.545309 10.9957 0.730079 10.9033C 0.683887 10.9495 0.637692 11.0419 0.637692 11.1343L 0.545308 11.1805C 0.452923 11.2728 0.406729 11.4114 0.406729 11.5038C 0.499114 12.1043 0.683883 12.6586 1.00723 13.2129C 1.192 13.5363 1.42297 14.0444 1.8387 14.183C 4.84122 20.4652 9.92242 26.0083 14.9574 30.5814C 17.8676 33.2144 20.9163 35.6626 24.0574 38.0646C 27.0599 40.328 30.3396 43.4691 34.1736 44.0696C 34.4969 44.1158 34.6355 43.7463 34.4507 43.5615C 35.0974 42.1757 35.3746 40.6052 35.9289 39.1732C 36.5756 37.5103 37.3147 35.8935 38.1923 34.323C 40.04 31.0433 42.3497 28.087 44.9827 25.454C 47.5695 22.8672 50.4796 20.65 53.6207 18.8023C 56.3461 17.2317 59.2562 15.9845 61.7968 14.1368C 62.1663 14.3678 62.6744 13.952 62.4435 13.6287C 62.5821 13.5363 62.7206 13.3977 62.8592 13.3053C 63.1364 13.0282 63.044 12.6124 62.7668 12.4739Z"/>
<path id="path9_fill" d="M 12.1538 2.53617C 10.7218 2.44378 8.68936 2.76713 7.34977 2.25901C 5.9178 1.75089 6.74926 1.33516 6.5183 0.457499C 6.33353 -0.189199 5.2249 -0.143008 5.36348 0.549883C 5.40968 0.734653 4.90156 1.47373 4.90156 1.79708C 4.90156 1.88947 4.94775 1.93566 4.94775 2.02805C 4.6706 1.98185 4.34725 2.16663 4.25486 2.39759C 2.68431 5.30773 0.605637 8.91076 0.0513252 12.2366C -0.0410602 12.7909 -0.0410573 13.2067 0.328484 13.6686C 0.975181 14.4539 3.88531 15.4239 4.85536 15.6549C 4.94775 15.6549 5.04013 15.7011 5.13252 15.7011C 5.08633 15.4701 5.08633 15.2392 5.13252 14.962C 5.04013 15.0544 4.94775 15.0544 4.80917 15.0544C 5.36348 12.8371 6.61069 10.8047 7.8117 8.72598C 9.15128 6.55493 10.5833 4.61484 11.0452 4.01433C 11.4147 3.55241 12.2462 3.96814 12.0152 4.56864C 10.8604 7.01686 9.93656 9.55745 9.0589 12.0981C 9.10509 12.0057 9.19747 11.9133 9.24366 11.8209C 10.9528 9.18791 12.0614 6.27778 12.7081 3.22906C 12.7543 2.90571 12.4772 2.53617 12.1538 2.53617Z"/>
<path id="path10_fill" d="M 15.6724 3.94607C 15.3953 3.62272 15.1181 3.29938 14.7948 3.02222C 14.7948 2.92983 14.7486 2.83745 14.6562 2.79126C 14.5176 2.69887 14.4252 2.65268 14.2867 2.60649C 12.3928 1.22071 9.75977 0.712586 7.54252 0.296852C 6.24913 0.0658882 5.04812 -0.257459 3.84711 0.343045C 2.46133 1.03594 0.983161 2.46791 0.0593077 3.71511C -0.125463 3.99227 0.151694 4.31561 0.475042 4.17704C 0.521235 4.17704 0.521237 4.13084 0.56743 4.13084C 0.659815 4.26942 0.890778 4.36181 1.07555 4.26942C 1.90702 3.89988 2.59991 3.53034 3.2928 2.92983C 3.75472 2.5141 4.30903 2.05217 4.67858 1.49786C 5.83339 1.17451 7.0344 1.45167 8.3278 1.77502C 8.60495 1.82121 8.88211 1.9136 9.15927 2.00598C 10.2679 3.06841 11.5613 3.85369 13.1318 4.08465C 13.2704 4.08465 13.409 4.03846 13.5014 3.89988C 13.9633 4.17704 14.4714 4.50039 14.9334 4.82373C 15.4877 5.14708 16.042 4.45419 15.6724 3.94607Z"/>
<path id="path11_fill" d="M 26.796 12.1585C 26.8884 10.357 26.7037 8.60165 25.2717 7.35445C 23.6549 5.92247 21.1605 5.18339 19.0819 4.53669C 17.9732 3.42807 16.3103 3.1971 14.8321 2.91995C 13.4926 2.68898 12.153 2.50421 10.7672 2.5966C 10.2129 2.45802 9.61236 2.36563 9.01186 2.31944C 8.91947 2.31944 8.87328 2.31944 8.82709 2.36564C 8.50374 2.27325 8.18039 2.18086 7.81085 2.08848C 7.39512 1.99609 6.97938 1.9961 6.56364 1.9499C 5.40883 1.81133 4.9469 1.39559 4.06924 0.748892C 3.053 0.0560017 1.852 -0.452119 0.881952 0.610312C -1.19672 2.82756 2.36012 5.36816 4.43879 3.47426C 5.08548 3.70522 5.77837 3.8438 6.28649 3.98238C 9.19663 4.86004 11.691 6.29201 14.0007 8.13972L 14.0007 8.18592C 14.0931 8.64784 14.3702 9.15596 14.7859 9.43312C 13.123 10.2646 11.5525 11.3732 10.0281 12.2971C 7.4875 13.8214 4.94691 15.392 2.36012 16.8701C 1.66723 16.4544 0.78956 16.6854 0.327634 17.4706C -0.457642 18.7178 0.327634 20.8427 1.02052 21.9051C 2.86823 24.8153 6.05553 23.06 5.36264 20.0112C 5.36264 19.965 5.36264 19.9188 5.36264 19.8727C 9.05805 18.3945 12.4763 16.2696 16.1717 14.8839C 17.5113 14.8377 18.8971 14.7453 20.2367 14.6067C 21.8072 16.8239 22.6387 19.4569 22.5001 22.2285C 22.4077 23.8914 21.9458 25.3696 21.2529 26.894C 20.9758 27.4483 20.56 28.0026 20.6986 28.6493C 21.1143 31.0975 26.8884 31.0513 26.6575 28.1873C 26.5651 27.3559 26.0108 27.2635 25.595 26.663C 24.6712 25.1848 25.6874 22.3209 25.9184 20.7041C 26.2417 17.9326 26.6575 15.0224 26.796 12.1585Z"/>
<path id="path12_fill" d="M 11.2311 11.1577C 9.70672 9.03282 7.16613 8.15515 6.47324 5.42979C 6.38085 5.01405 5.73415 5.06024 5.64177 5.42979C 5.27222 3.25873 3.70167 1.27245 1.53061 0.718134C 1.29965 0.48717 1.11488 0.302398 0.883919 0.117628C 0.283414 -0.344299 -0.31709 0.671938 0.191029 1.13387C 0.283414 1.22625 0.421991 1.31864 0.514376 1.45722C 1.20727 2.15011 1.76158 2.93538 2.08493 3.90543C 2.54686 5.38359 2.31589 5.79933 1.48443 6.95414C 1.43823 7.00034 1.39204 7.09272 1.34585 7.13891C 1.34585 7.13891 1.34584 7.13892 1.29965 7.18511C 1.25346 7.18511 1.20727 7.2313 1.20727 7.2313C 0.93011 7.41607 0.883919 7.60085 0.883919 7.92419C 0.837726 8.06277 0.837724 8.24754 0.837724 8.47851C 1.02249 10.0491 3.79405 12.8206 5.45699 11.5734C 5.96511 11.2039 6.01131 10.6034 5.96511 10.0029C 5.91892 9.72571 5.87273 9.40236 5.82653 9.1252C 6.24227 10.511 6.84277 11.8044 7.76662 12.913C 8.5519 13.883 9.93768 15.4074 11.2773 14.3912C 12.3859 13.6059 11.8778 12.1277 11.2311 11.1577Z"/>
<path id="path13_fill" d="M 35.8268 12.9022C 35.1801 11.886 34.21 11.0545 33.6095 9.99207C 33.009 8.97583 32.5009 7.91339 31.808 6.98954C 30.6532 5.46518 29.2674 4.17179 27.6969 3.10936C 25.4334 1.585 22.6619 0.522568 19.8903 0.337798C 18.5507 -0.262707 16.7492 0.0144489 15.0401 0.568761C 11.0213 0.753532 7.46449 3.06316 4.60055 5.92711C 4.55435 5.9733 4.55435 6.0195 4.50816 6.06569C 3.90765 6.52761 3.35334 7.03573 2.84522 7.59005C 2.79903 7.59005 2.79903 7.59005 2.75284 7.54385L 2.70664 7.54385C 2.3833 7.35908 2.01376 7.31289 1.59802 7.40528C 1.50564 7.45147 1.41325 7.45147 1.27467 7.49766C 0.72036 7.54385 0.212241 7.95959 0.119856 8.56009C 0.119856 8.60628 0.119856 8.60629 0.119856 8.65248C -0.203493 9.39156 0.166049 10.223 0.766554 10.7311L 0.812746 10.7773C 1.7366 11.886 3.72288 12.625 4.92389 11.5164C 5.43201 11.0545 5.66298 10.3616 5.57059 9.71491C 5.84775 9.1606 6.07871 8.60629 6.21729 8.00578C 7.23353 7.2667 8.29596 6.66619 9.49697 6.11188C 10.6056 5.64995 11.8066 5.23422 12.9614 4.81849C 13.0076 4.81849 13.0076 4.86468 13.0538 4.86468C 14.1162 5.55757 15.1325 6.25046 16.1949 6.94335L 16.2411 6.98954C 16.3335 7.12812 16.4721 7.17431 16.5644 7.17431C 16.7954 7.31289 17.0264 7.45147 17.2111 7.59005C 18.4122 9.48395 19.567 11.424 20.537 13.4565C 20.537 13.5027 20.537 13.5027 20.537 13.5489C 20.9066 14.5651 21.0913 15.489 20.9989 16.5052C 20.9066 16.5514 20.8142 16.6438 20.8142 16.7824C 20.8142 17.0595 20.768 17.1981 20.768 17.3367C 20.0751 17.7062 19.7979 18.7225 20.1675 19.5078C 20.7218 20.8012 22.7081 21.2169 23.9553 21.0783C 25.1563 20.9397 26.2649 19.8311 25.7106 18.5839C 25.4334 17.9372 24.7867 17.6601 24.2324 17.3829C 24.14 16.921 23.9553 16.4128 23.5395 16.2743C 22.8928 13.0408 22.0614 9.62252 20.9066 6.52761C 20.9528 6.52761 21.0451 6.52761 21.0913 6.52761C 24.0015 5.74234 27.6507 7.54386 29.8217 9.53014C 31.6233 11.1469 31.808 13.5489 33.1938 15.4428C 33.4248 15.72 33.6095 15.9509 33.8405 16.1357C 33.7943 16.2281 33.7943 16.3667 33.8405 16.459C 33.8867 16.5514 33.9791 16.69 34.1177 16.7824C 34.3486 16.921 34.6258 17.0134 34.9029 16.9672C 35.4111 16.8748 35.9654 16.4128 35.9654 15.8585C 36.4735 15.1656 36.5197 13.9646 35.8268 12.9022Z"/>
<path id="path14_fill" d="M 9.55644 0.927108C 9.41786 1.01949 9.32548 1.11188 9.1869 1.15807C 9.14071 1.01949 9.00213 0.927108 8.86355 0.927108C 7.57016 0.742337 6.46153 -0.22771 5.12194 0.0494465C 4.38286 0.234217 3.73617 0.649952 2.99708 0.834722C 2.07323 1.06569 1.19557 1.11188 0.225522 1.15807C -0.0978266 1.15807 -0.0516339 1.57381 0.225522 1.62C 0.687449 1.66619 1.14938 1.66619 1.56511 1.66619C 1.47273 1.89715 1.56511 2.12812 1.84227 2.26669C 2.8585 2.72862 4.66002 3.88344 5.86103 3.79105C 5.86103 3.83725 5.86103 3.88344 5.81484 3.92963C 5.81484 3.97582 5.86103 4.02202 5.90722 4.02202C 6.50772 4.20679 7.10823 3.5139 7.61635 3.19055C 8.40163 2.63624 9.23309 2.12812 9.97218 1.52761C 10.2955 1.25046 9.87979 0.696145 9.55644 0.927108Z"/>
<path id="path15_fill" d="M 12.9634 6.3216C 12.3167 6.50638 11.7624 6.82972 11.1619 7.01449C 11.1157 7.01449 11.0695 6.9683 10.9771 6.9683C 6.58877 6.92211 4.32534 4.70486 1.83093 1.3328C 1.73855 1.19422 1.55377 1.10183 1.41519 1.10183C 1.50758 0.870869 1.59997 0.686098 1.69235 0.455134C 1.87712 0.0394002 1.4152 -0.145371 1.13804 0.131785C -0.61728 2.11807 -0.247739 4.79725 1.59997 6.59876C 4.09437 9.00078 7.78978 8.53885 10.8847 8.07693C 10.9771 8.07693 11.0695 8.03073 11.1157 7.93835C 11.9009 7.75358 12.6862 7.43023 13.2405 6.92211C 13.5639 6.69115 13.3791 6.18303 12.9634 6.3216Z"/>
<path id="path16_fill" d="M 8.47434 14.8137C 8.05861 14.7213 7.64288 14.8598 7.22714 14.8137C 6.67283 14.7213 6.11852 14.3979 5.79517 13.936C 5.47182 13.4741 5.42563 12.9659 5.51801 12.4116C 5.65659 11.8573 6.02613 11.534 6.30329 11.072C 6.39567 10.9335 6.39567 10.7949 6.34948 10.6563C 6.48806 10.6101 6.62664 10.4715 6.58044 10.2868C 6.48806 8.43906 5.37943 6.54516 4.45558 4.97461C 3.39315 3.1731 2.09976 1.46397 0.529204 0.0781893C 0.252048 -0.152774 -0.163686 0.170575 0.0672775 0.493924C 1.31448 2.01828 2.51549 3.54264 3.48554 5.20558C 4.45558 6.86851 4.91751 8.80861 5.88755 10.4254L 5.84136 10.4254C 4.317 10.9797 3.99366 13.2893 4.82512 14.4903C 5.24086 15.137 5.97994 15.5989 6.71902 15.7375C 7.36572 15.8761 8.33576 15.8299 8.70531 15.2294C 8.7515 15.0446 8.65911 14.8598 8.47434 14.8137Z"/>
<path id="path17_fill" d="M 12.5251 10.3386C 11.786 8.8604 11.1393 7.52081 10.6312 5.90407C 10.2616 4.70306 9.79972 3.50205 8.92206 2.57819C 6.93577 0.638103 3.0094 -0.193365 0.33022 0.037598C 0.0530639 0.037598 -0.177897 0.499525 0.191644 0.59191C 3.42513 1.56196 7.58247 1.56196 9.15302 5.0726C 9.98449 6.87411 10.1231 9.5071 11.9246 10.7081C 12.1555 10.8929 12.7099 10.7081 12.5251 10.3386Z"/>
<path id="path18_fill" d="M 6.85667 8.22071C 5.60947 5.58773 4.40846 3.78621 4.82419 0.691305C 4.91658 0.0446076 4.13131 -0.232549 3.76177 0.229378C 3.02268 1.19942 2.19121 1.89231 1.12878 2.53901C 0.851621 2.67759 0.482086 2.76998 0.297315 3.00094C -0.210804 3.64764 0.0663502 4.66388 0.158736 5.40296C 0.251121 6.4192 0.43589 7.34305 0.713046 8.22071C 0.297312 8.49787 0.297309 9.23696 0.897814 9.32934C 0.944007 9.32934 0.944012 9.32934 0.990205 9.32934C 1.0364 9.32934 1.08258 9.32934 1.12878 9.32934C 1.5907 10.2994 2.19121 11.2232 3.06888 12.1009C 3.43842 12.4243 4.03892 12.0085 3.94653 11.5466C 3.80796 10.8075 3.62318 10.0684 3.34603 9.32934C 3.57699 9.65269 3.80796 9.97604 3.94653 10.3456C 4.45465 11.408 4.36227 11.9623 4.03892 12.7014C 1.96025 13.4867 2.83791 15.7501 4.08511 16.9973C 4.54704 17.4592 5.33232 16.7202 4.91658 16.212C 4.08511 15.242 4.40846 14.3181 5.05515 13.3943C 5.19373 13.2095 5.37851 13.0248 5.47089 12.7938C 5.70186 12.2395 5.51709 11.6852 5.37851 11.1309C 4.91658 9.65269 4.03892 8.2669 2.79172 7.38924C 2.74552 6.92732 2.97649 6.60397 3.76177 7.0659C 4.08511 7.25067 4.40846 7.0659 4.54704 6.74255C 4.96277 7.52782 5.56328 8.22072 6.30236 8.72884C 6.57952 8.86741 7.04144 8.59025 6.85667 8.22071Z"/>
<path id="path19_fill" d="M 5.21977 7.2488C 4.24973 6.14017 3.32587 5.12393 2.5406 3.87673C 1.80151 2.67572 1.43197 1.24374 0.600505 0.13512C 0.369541 -0.188229 -1.40969e-06 0.135123 -1.40969e-06 0.412279C -1.40969e-06 1.42852 0.508119 2.53714 1.06243 3.461C 0.877661 3.59958 0.73908 3.78435 0.785273 4.01531C 1.20101 5.9554 2.95633 7.2026 4.61927 8.03407C 5.08119 8.31123 5.54312 7.61834 5.21977 7.2488Z"/>
<path id="path20_fill" d="M 9.09381 7.03844C 5.76793 5.69885 3.87403 3.20445 2.1649 0.155736C 1.98013 -0.167613 1.51821 0.0633506 1.56441 0.386699C 1.6106 0.57147 1.65678 0.710051 1.70298 0.894822C 1.51821 1.12578 1.47202 1.40294 1.42583 1.72628C 1.33344 2.2344 1.14867 2.74252 0.917703 3.25064C 0.640547 3.89734 -0.190918 4.63642 0.0400454 5.32931C 0.0862381 5.4217 0.132428 5.56028 0.224813 5.56028C 0.271006 5.56028 0.317197 5.56028 0.317197 5.60647C 0.455775 5.65267 0.594355 5.65266 0.68674 5.56028C 1.37963 6.25317 2.48826 6.48413 3.41211 6.76129C 4.56693 7.54657 6.09129 7.86991 7.56945 7.77753C 7.66184 7.77753 7.70803 7.73133 7.80042 7.73133C 8.12376 7.86991 8.44711 8.05469 8.72427 8.14707C 9.41716 8.42423 9.7867 7.3156 9.09381 7.03844Z"/>
<path id="path21_fill" d="M 35.9266 18.3833C 36.1114 18.1985 36.2961 18.06 36.4809 17.829C 36.7581 17.5518 36.4809 16.9975 36.1114 17.1823C 32.5545 19.03 29.2748 19.5843 25.3485 18.3371C 21.9764 17.2747 18.8815 15.427 15.9252 13.5331C 10.2435 9.83765 5.34704 5.31078 0.912541 0.183388C 0.404422 -0.370924 -0.288467 0.460543 0.127267 0.968662C 3.17598 4.84885 6.8252 8.35949 10.7978 11.4082C 10.7516 11.5006 10.7978 11.593 10.844 11.6854C 13.5693 14.7803 17.4033 17.5056 20.8678 19.6767C 22.0226 20.3696 22.1612 21.0163 23.3622 21.6168C 23.2698 21.8016 24.286 22.0325 24.517 22.2635C 25.3947 23.0026 26.9652 23.6955 28.1662 23.4183C 29.5982 24.0188 31.0302 24.5269 32.4621 25.035C 32.7855 25.1274 33.0165 25.035 33.155 24.8503C 33.2012 24.8503 33.2474 24.8503 33.2936 24.8503C 33.8479 22.633 35.0951 20.6006 36.2961 18.5681C 36.2499 18.4295 36.0652 18.3833 35.9266 18.3833Z"/>
<path id="path22_fill" d="M 7.20606 0.751795C 6.05124 3.20001 5.12738 5.7406 4.24972 8.2812C 3.32587 9.75936 2.07867 12.0228 0.323346 11.8842C 0.277153 11.6533 0.277153 11.4223 0.323346 11.1451C 0.230961 11.2375 0.138577 11.2375 -1.40969e-06 11.2375C 0.554311 9.02028 1.80151 6.98781 3.00252 4.90914C 4.34211 2.73808 5.77408 0.797982 6.23601 0.197477C 6.65174 -0.26445 7.48322 0.15129 7.20606 0.751795Z"/>
<path id="path23_fill" d="M 3.88018 1.40969e-06C 3.32587 1.61675 2.81775 3.27968 2.26344 4.94262C 2.12486 5.40454 1.33959 5.17358 1.43197 4.71165C 1.33959 4.75785 1.20101 4.80404 1.10862 4.75785C 0.461927 4.57308 0.0923882 4.15734 2.81938e-06 3.55684C 1.70913 3.7878 2.95633 1.47817 3.88018 1.40969e-06Z"/>
<path id="path24_fill" d="M 6.99522 8.01703C 6.16375 8.10941 5.37848 8.34038 4.54701 7.87846C 3.57696 7.32414 3.57696 6.3079 3.16123 5.38405C 2.93026 4.87593 2.6993 4.55258 2.32976 4.22923C 2.37595 4.18304 2.37595 4.13684 2.37595 4.09065C 2.51453 3.62872 2.56072 3.213 2.56072 2.79726C 2.79169 2.79726 2.97645 2.70487 3.11503 2.5201C 3.39219 2.15056 3.16122 1.73483 2.74549 1.64245C 2.56072 1.59625 2.56072 1.64244 2.42214 1.59625C 2.42214 1.59625 2.37595 1.59625 2.32976 1.55005C 2.14499 1.08813 1.91403 0.626204 1.54448 0.21047C 1.12875 -0.297649 0.343476 0.210473 0.297284 0.718592C 0.204898 1.78102 -0.349418 3.72111 0.343472 4.69116C 0.759206 5.24547 1.40591 5.33786 1.77545 5.98455C 2.0526 6.53887 2.14499 7.13937 2.42214 7.69368C 3.25361 9.21804 5.88659 10.2805 7.17999 8.70992C 7.41095 8.43276 7.36476 7.97084 6.99522 8.01703Z"/>
<path id="path25_fill" d="M 4.09217 15.2631C 2.79877 15.0321 2.56781 13.6002 2.56781 12.2606C 2.84496 12.3991 3.16831 12.353 3.35308 12.0296C 4.13836 10.4129 4.5079 8.74992 4.41551 6.94841C 4.41551 6.57887 4.09216 6.39409 3.81501 6.3479C 3.72262 4.54639 3.39927 2.79107 2.614 1.26671C 2.47542 0.989551 2.10588 0.989552 1.92111 1.17432C 1.69014 0.666204 1.41299 0.250472 1.04345 0.0657017C 0.720099 -0.119069 0.350561 0.111889 0.16579 0.435237C 0.119597 0.48143 0.119592 0.527624 0.0733991 0.573817C -0.111372 0.897166 0.0734048 1.35909 0.396753 1.49767C 0.442946 1.49767 0.442945 1.54387 0.489137 1.54387C 0.53533 1.59006 0.581524 1.59005 0.627717 1.59005C 0.997258 2.32914 1.18202 4.40781 1.22822 4.73116C 1.36679 5.56263 1.45918 6.3941 1.45918 7.22557C 1.50537 8.84231 1.27441 10.4129 1.27441 12.0296C 1.27441 13.7849 1.64395 16.0022 3.58405 16.4179C 3.8612 16.4641 4.23074 16.1869 4.23074 15.9098C 4.23074 15.8174 4.23074 15.725 4.23074 15.6326C 4.32312 15.4941 4.27694 15.3093 4.09217 15.2631Z"/>
<path id="path26_fill" d="M 15.4821 4.77159C 14.8816 4.17109 14.4659 3.66297 13.7268 3.24723C 13.542 3.15485 13.311 3.15485 13.1263 3.24723C 11.14 1.5381 8.73796 -0.171024 6.47452 0.0137467C 6.10498 0.0599394 6.15117 0.52187 6.38214 0.660448C 7.8603 1.5843 9.47705 1.95384 10.909 3.06247C 11.7867 3.70916 12.572 4.44825 13.3572 5.14114C 11.0476 6.34215 8.83035 7.72793 6.75168 9.29848C 5.87402 9.94518 4.85778 11.1924 3.88774 11.6543C 3.01007 12.0238 2.2248 11.7929 1.43952 12.3934C -1.28585 14.3797 0.146123 19.2761 3.33342 19.8304C 3.51819 19.8766 3.74916 19.6918 3.65677 19.4609C 2.77911 17.8903 0.608055 16.4583 1.67049 14.3797C 2.08622 13.5944 4.81158 12.7629 5.78163 11.9777C 8.36842 9.8066 11.14 7.9127 14.0963 6.29595C 14.1887 6.57311 14.512 6.75788 14.7892 6.52692C 14.974 6.38834 15.1126 6.29595 15.2973 6.15737C 15.5283 6.0188 15.5745 5.74164 15.4821 5.51068C 15.6669 5.3721 15.6669 4.95636 15.4821 4.77159Z"/>
<path id="path27_fill" d="M 42.6649 44.3769C 42.5263 44.4231 42.3877 44.4231 42.2954 44.4231C 42.2954 44.2845 42.2954 44.1922 42.1106 44.0998C 40.6324 43.2221 39.1081 42.3907 37.6761 41.4668C 36.4751 40.6353 35.3665 39.6653 34.2116 38.7876C 34.2116 38.7876 34.2116 38.7414 34.1654 38.7414C 30.3776 35.6003 26.7284 32.2283 23.4949 28.4867C 21.8782 26.4542 20.4 24.3293 18.7833 22.2506C 17.3051 20.0334 15.8731 17.7238 14.4412 15.4603C 14.3488 15.3217 14.2564 15.2755 14.164 15.2755C 13.7483 14.4903 13.3787 13.6588 12.963 12.8273C 12.9168 12.6888 12.7782 12.5964 12.6859 12.5502C 11.2539 9.36288 9.82191 6.17559 8.48232 2.9421C 8.29755 2.52637 7.92801 2.61875 7.69704 2.84972C 7.69704 2.80352 7.65085 2.75733 7.65085 2.75733C 6.12649 0.955818 2.70823 -0.337578 0.398599 0.0781557C -0.155713 0.170541 -0.10952 0.909624 0.398599 1.00201C 1.6458 1.27917 2.84681 1.27916 4.09401 1.74109C 5.20264 2.15683 6.12649 2.84972 7.14273 3.35783C 7.28131 3.45022 7.41989 3.40403 7.55846 3.31164C 7.55846 3.35784 7.55846 3.40403 7.60466 3.45022C 9.08282 7.05325 10.6534 10.5639 12.4087 13.9822C 14.9493 19.8948 18.4137 25.4379 22.4787 30.3806C 24.5574 32.9212 26.8208 35.3232 29.2228 37.5404C 31.1629 39.2957 33.2878 41.3744 35.5974 42.7602C 35.3665 42.7602 35.1355 42.8064 34.9045 42.8988C 33.2878 43.3607 32.6411 45.2084 33.5188 46.5942C 33.8421 47.1023 34.535 46.779 34.304 46.1784C 33.5649 44.1922 35.736 43.7764 37.1218 44.1922C 37.8609 44.4231 38.5538 44.8389 39.2928 45.1622C 40.4938 45.7165 41.7872 46.0399 43.0344 45.3932C 43.6349 45.2084 43.3116 44.2384 42.6649 44.3769Z"/>
<path id="path28_fill" d="M 10.3932 15.8389C 8.03738 15.3308 6.51302 15.146 7.02114 12.3283C 9.37697 11.774 6.88256 7.20089 6.09729 6.18465C 6.0049 6.04607 5.82013 6.04608 5.68155 6.09227C 4.52674 3.78263 2.72522 1.19584 0.50797 0.0410269C 0.277007 -0.0975511 -0.138727 0.133413 0.0460434 0.456762C 1.20086 2.1197 2.72522 3.45929 3.78765 5.21461C 4.43435 6.32323 4.98866 7.43186 5.45059 8.63287C 5.95871 10.0186 5.72774 11.0811 5.49678 12.5131C 5.03485 15.3308 7.62164 17.3633 10.347 16.5318C 10.7627 16.4394 10.7627 15.8851 10.3932 15.8389Z"/>
<path id="path29_fill" d="M 15.5044 18.2532C 15.2273 17.6065 14.9039 16.9598 14.6268 16.3131C 13.1948 12.9411 11.3933 9.84617 9.12986 6.93603C 7.32834 4.5802 4.55678 0.561439 1.41568 0.00712715C 1.13852 -0.0390655 0.999942 0.145703 0.999942 0.376666C 0.815171 0.284281 0.630402 0.238088 0.445631 0.191895C 0.0760899 0.0995097 -0.154872 0.653822 0.122284 0.884785C 1.46187 2.17818 3.171 3.10203 4.60297 4.34924C 6.03495 5.59644 7.32835 6.98222 8.52936 8.46038C 11.07 11.6477 13.0562 15.1583 14.9963 18.7152C 15.1349 19.0847 15.6892 18.6228 15.5044 18.2532Z"/>
<path id="path30_fill" d="M 9.15171 5.59286C 8.64359 4.1147 7.02684 3.05227 5.73345 2.26699C 4.1167 1.29695 2.269 0.373092 0.421289 0.00355056C 0.0979407 -0.0426421 -0.179211 0.37309 0.144138 0.604053C 1.34515 1.38933 2.73092 1.94364 4.02432 2.59034C 5.27152 3.69896 6.84207 4.80759 7.44257 6.19337C 7.62735 7.34819 7.48877 8.503 6.98065 9.61162C 6.93445 9.7502 6.93446 9.84259 7.02684 9.93497C 6.14918 11.9213 5.04056 13.8152 3.93194 15.7091C 3.74716 15.9862 4.20909 16.3558 4.44005 16.0786C 5.68725 14.6928 6.74969 13.1685 7.62735 11.5055C 8.22785 10.3045 9.1979 8.73397 9.1979 7.34819C 9.1979 6.93245 9.05932 6.51672 8.92075 6.10099C 9.05932 5.96241 9.24409 5.77763 9.15171 5.59286Z"/>
<path id="path31_fill" d="M 1.20101 0.212195C 0.323346 2.47564 0.0923868 5.01624 1.40969e-06 7.41826C 1.40969e-06 7.83399 0.600508 7.83399 0.600508 7.46445C 0.785278 5.06243 1.38578 2.7066 1.80151 0.350774C 1.84771 -0.0649599 1.29339 -0.111154 1.20101 0.212195Z"/>
<path id="path32_fill" d="M 2.52715 1.02801L 2.48096 1.02801C 1.88046 0.381314 1.14138 -0.0806111 0.30991 0.0117743C 0.0327538 0.0117743 -0.152018 0.427507 0.17133 0.566085C 0.864221 0.843241 1.46472 1.12039 1.97284 1.53613C 1.97284 1.58232 2.01903 1.62851 2.06523 1.67471C 2.15761 1.76709 2.25 1.85948 2.38858 1.95187C 2.43477 2.04425 2.52716 2.13663 2.57335 2.22902C 2.94289 2.87571 3.17385 3.661 3.35862 4.40008C 3.86674 6.24779 4.0977 8.18787 4.1439 10.0818C 4.1439 10.2204 4.23628 10.3127 4.28248 10.3589C 4.1439 11.6523 3.91293 12.9457 3.82055 14.1929C 3.77436 14.5163 4.28248 14.5163 4.32867 14.2391C 5.02156 10.5437 7.33119 3.06049 2.52715 1.02801Z"/>
<path id="path33_fill" d="M 0.643911 0.092384C 0.505333 0.0461913 0.412946 0 0.274368 0C -0.0489803 0 -0.0951716 0.554312 0.181984 0.69289C 0.320563 0.877661 0.551526 1.06243 0.643911 1.33958C 0.736297 1.75532 0.459142 1.94009 0.320564 2.26344C 0.228179 2.44821 0.366759 2.77156 0.597723 2.77156C 1.24442 2.81775 1.56776 2.07867 1.56776 1.52436C 1.47538 0.923855 1.19822 0.277155 0.643911 0.092384Z"/>
<path id="path34_fill" d="M 2.12989 0.181247C 1.99132 0.596981 1.80654 1.19749 1.437 1.47464C 1.06746 1.7518 0.882687 1.47464 0.559338 1.33606C 0.42076 1.24368 0.143608 1.24368 0.0512231 1.47464C -0.272126 2.30611 1.02127 2.49088 1.52939 2.3523C 2.40705 2.07514 2.63801 1.19749 2.6842 0.366022C 2.77659 -0.00351982 2.26847 -0.142102 2.12989 0.181247Z"/>
<path id="path35_fill" d="M 1.97936 0.0210343C 1.7022 0.11342 1.56363 0.298189 1.28647 0.344382C 1.00931 0.390574 0.732161 0.298189 0.54739 0.113418C 0.270234 -0.117545 -0.191692 0.251993 0.0854636 0.52915C 0.408812 0.898691 0.824545 1.08347 1.33266 1.08347C 1.79459 1.08347 2.3489 0.852501 2.48748 0.344382C 2.57987 0.159611 2.21032 -0.071351 1.97936 0.0210343Z"/>
<path id="path36_fill" d="M 0.609488 0.113673C 0.378525 -0.163483 -0.175786 0.113672 0.0551774 0.43702C 0.886645 1.59184 1.02522 2.79284 1.1176 4.17862C 1.1176 4.50197 1.62572 4.50197 1.71811 4.22482C 2.08765 2.79285 1.48715 1.2223 0.609488 0.113673Z"/>
<path id="path37_fill" d="M 1.73816 1.4681C 1.41481 1.00617 1.04526 0.59044 0.67572 0.128513C 0.352372 -0.241028 -0.201935 0.267094 0.0752212 0.636636C 0.39857 1.05237 0.721917 1.4681 1.09146 1.83764C 1.36861 2.1148 1.96912 1.79145 1.73816 1.4681Z"/>
<path id="path38_fill" d="M 9.26587 4.0482C 7.60294 0.907098 3.53798 -0.201527 0.258304 0.0294366C -0.15743 0.0756293 -0.0188527 0.62994 0.304496 0.676133C 3.67656 1.27664 6.44812 1.59999 8.75776 4.37155C 8.94253 4.60251 9.45065 4.37155 9.26587 4.0482Z"/>
<path id="path39_fill" d="M 2.10476 0.174922C 2.01238 -0.00984913 1.55045 -0.102234 1.50426 0.174922C 1.41187 0.636848 0.996139 1.19116 0.441827 1.00639C 0.0260928 0.82162 -0.158679 1.37593 0.16467 1.60689C 0.626597 1.93024 1.2271 1.88405 1.68903 1.51451C 2.19715 1.23735 2.38192 0.683041 2.10476 0.174922Z"/>
<path id="path40_fill" d="M 14.0661 3.65311C 9.95499 0.973935 5.15095 -0.273268 0.25453 0.0500804C -0.161204 0.096273 -0.0226236 0.650587 0.346918 0.650587C 5.15096 0.650587 9.44687 1.99017 13.558 4.48458C 14.1123 4.85412 14.5743 4.02265 14.0661 3.65311Z"/>
<path id="path41_fill" d="M 23.4731 4.89679C 22.3182 4.48105 21.1634 4.06532 19.9624 3.69578C 16.498 2.07904 12.8025 1.0628 9.01475 0.462291C 6.38177 0.0465565 2.4092 -0.600141 0.145757 1.20137C -0.0390135 1.33995 -0.0390163 1.6633 0.0995617 1.84807C 0.053369 1.94046 0.0533704 2.03284 0.00717774 2.07903C -0.0390149 2.2638 0.145754 2.44858 0.330525 2.54096C 0.42291 2.67954 0.561493 2.81812 0.746263 2.81812C 4.76503 2.58715 8.36805 2.2638 12.3868 2.95669C 16.0822 3.60339 19.5929 4.8506 23.1959 5.68206C 23.7964 5.82064 23.935 5.03537 23.4731 4.89679Z"/>
<path id="path42_fill" d="M 6.87117 1.76211e-07C 4.88488 0.0461929 1.51281 0.508119 0.219417 2.26344C 0.173224 2.30963 0.12703 2.35583 0.0808372 2.44821C 0.0808372 2.49441 0.0346417 2.4944 0.0346417 2.5406C -0.011551 2.63298 -0.011551 2.72537 0.0346417 2.77156C -0.0577437 3.69541 0.958498 3.92638 1.69758 3.55684C 2.39047 3.18729 3.03717 2.5406 3.73006 2.12486C 4.74629 1.52436 5.85492 1.06243 7.00974 0.831469C 7.51786 0.692891 7.42548 1.76211e-07 6.87117 1.76211e-07Z"/>
<path id="path43_fill" d="M 14.3375 11.194C 13.8294 11.425 13.2751 11.5636 12.7207 11.656L 12.6746 11.656C 9.903 11.5174 7.54717 11.6098 5.28373 9.71586C 2.46598 7.40622 0.803039 4.03416 1.35735 0.431132C 1.40354 0.0615906 0.849232 -0.169373 0.664461 0.153976C -0.397971 2.04788 -0.0746247 4.12655 0.849229 6.02044C 1.40354 8.42246 2.69693 10.5473 5.09895 11.6098C 6.02281 12.0255 7.08524 12.3488 8.19387 12.5798C 9.16391 12.857 10.2263 12.9955 11.1964 12.857C 12.536 12.857 13.8294 12.5798 14.8456 11.9793C 15.3537 11.656 14.8918 10.9631 14.3375 11.194Z"/>
<path id="path44_fill" d="M 7.22074 9.30405C 2.74005 10.3665 0.707568 3.62235 0.938531 0.342671C 0.938531 0.0193221 0.430417 -0.16545 0.338032 0.204091C -0.170087 1.58987 -0.0777105 3.43758 0.430409 5.14671C 0.338024 5.23909 0.291837 5.37767 0.291837 5.51625C 0.430415 7.31776 1.53904 10.0893 3.24816 11.0594C 4.49537 11.7523 6.52784 11.1979 7.63647 10.3665C 8.0984 9.99694 7.86743 9.11928 7.22074 9.30405Z"/>
<path id="path45_fill" d="M 9.31099 6.49404C 8.94144 4.78492 8.0176 3.21436 6.7242 2.05955C 5.33842 0.812345 3.02878 -0.388664 1.08869 0.119455C 0.811532 0.119455 0.534381 0.119455 0.257225 0.119455C -0.204701 0.165648 0.0262563 0.812345 0.395798 0.858538C 0.534376 0.858538 0.672958 0.904731 0.811536 0.950923L 0.857725 0.997116C 0.996303 1.04331 1.08869 1.0895 1.22727 1.13569C 1.41204 1.27427 1.59681 1.36666 1.82777 1.45904C 2.01254 1.55143 2.19731 1.64381 2.38208 1.69001C 3.5369 2.56767 4.8303 3.30675 5.84654 4.36918C 7.60186 6.1707 8.6181 8.29556 8.34094 10.8362C 8.29475 11.2057 8.89525 11.2981 8.98764 10.9285C 8.98764 10.8823 8.98764 10.8823 8.98764 10.8362C 9.68053 9.72753 9.72672 7.78744 9.31099 6.49404Z"/>
<path id="path46_fill" d="M 4.25219 1.53402C 3.46691 0.610163 1.80398 -0.637039 0.787737 0.3792C 0.556774 0.3792 0.372012 0.56397 0.233434 0.748741C 0.187241 0.841127 0.14104 0.887319 0.0948472 0.979704C -0.182309 1.44163 0.187241 1.94975 0.69536 1.94975C 2.86642 2.04214 5.31462 4.95228 5.40701 7.07714C 5.4532 7.72384 6.37705 7.63145 6.37705 6.98475C 6.33086 4.95227 5.59178 3.05838 4.25219 1.53402Z"/>
<path id="path47_fill" d="M 2.66763 0.00275033C 2.48286 0.00275033 2.2057 0.372292 2.06712 0.51087C 1.42042 1.15757 0.958501 2.08142 0.635152 3.05147C -0.103931 5.31491 -0.427281 8.17885 0.958499 10.1189C 1.6052 10.9966 2.2519 10.6733 2.02093 9.88798C 1.74378 8.82555 1.78997 8.36362 1.74377 7.30119C 1.74377 5.73064 2.2057 4.02151 2.52905 2.49715C 2.66763 2.17381 3.4991 -0.089635 2.66763 0.00275033Z"/>
<path id="path48_fill" d="M 3.98714 24.6099C 3.66379 24.5637 3.43283 24.9333 3.6176 25.2104C 4.03333 25.7647 4.77242 25.8571 5.41912 25.5338C 6.20439 25.1642 6.52774 24.2866 6.57393 23.4551C 6.57393 21.9307 5.5115 20.2216 3.94094 20.0368C 3.94094 20.0368 3.94094 20.0368 3.94094 19.9906C 3.70998 19.2516 3.06328 18.6511 2.55516 18.0967C 2.09324 17.5424 1.6775 16.9881 1.16938 16.5724C 1.30796 15.6947 1.16938 14.7247 1.16938 13.8008C 1.21558 13.7546 1.26177 13.6622 1.26177 13.5699C 1.30796 11.4912 1.12319 9.41252 1.16938 7.33385C 1.26177 5.02421 1.63131 2.76077 1.95466 0.451134C 2.00085 0.22017 1.86227 0.0815951 1.72369 0.0354024C 1.53892 -0.056983 1.30796 0.0354024 1.21558 0.266366C 0.199341 3.8232 -0.308785 8.07293 0.199335 11.9069C 0.0607569 13.0617 0.0607597 14.3089 0.24553 15.4638C 0.291723 15.8333 0.384108 16.1567 0.476494 16.48C 0.430301 16.5262 0.430301 16.6186 0.476494 16.711C 0.799843 17.45 1.40035 18.0967 1.90847 18.7434C 2.3704 19.3439 2.83232 20.0368 3.52521 20.4064C 3.52521 20.4526 3.5714 20.4988 3.6176 20.4988C 4.31049 21.0069 5.04957 21.5612 5.37292 22.3465C 5.60388 22.8546 5.65008 23.4551 5.41912 23.9632C 5.14196 24.6561 4.63384 24.7023 3.98714 24.6099Z"/>
<path id="path49_fill" d="M 1.65369 0.144974C 1.5613 -0.0397971 1.28414 -0.0397982 1.14556 0.0987798C 1.00699 0.144973 0.914604 0.237358 0.960797 0.422129C 1.09938 0.976441 1.23795 1.48456 1.42272 1.99268C 1.60749 3.10131 1.69988 4.16373 1.60749 5.31855C 1.42272 7.07387 0.729834 8.55204 0.0369434 10.1688C -0.147827 10.5383 0.406482 10.8155 0.683638 10.5383C 0.776023 10.4459 0.822216 10.3074 0.914601 10.215C 3.50139 8.27488 3.87093 2.87034 1.79226 0.468321C 1.74607 0.329743 1.69988 0.237359 1.65369 0.144974Z"/>
<path id="path50_fill" d="M 128.074 13.6016C 127.15 11.0148 123.732 10.2757 121.284 10.3681C 118.328 10.5067 114.863 11.3382 112.877 13.694C 109.412 11.2458 105.024 9.86 100.959 8.88995C 96.5247 7.78133 91.9978 7.3194 87.4709 7.45798C 87.2399 7.45798 87.1476 7.59656 87.1014 7.73514C 84.8841 2.97729 77.6781 -1.5034 72.5045 0.482886C 72.4583 0.482886 72.4121 0.529078 72.3659 0.575271C 67.9314 0.159537 63.8203 3.57779 63.2198 8.15087C 63.035 9.53665 63.1736 10.8762 63.4969 12.1234C 61.5106 12.0311 58.97 12.5392 57.1685 13.2321C 57.1223 13.2321 57.0761 13.2783 57.0299 13.3244C 53.3807 11.7539 49.2234 10.9686 45.6665 11.061C 45.528 11.061 45.4356 11.1072 45.3894 11.1996C 41.232 12.2158 36.8437 15.9574 34.5341 19.4219C 34.4417 19.5605 34.4417 19.6528 34.4879 19.7452C 34.2569 19.8376 34.026 19.8838 33.8412 19.9762C 33.795 19.9762 33.795 20.0224 33.7488 20.0224C 30.3306 20.9462 27.2357 23.3945 24.926 25.935C 23.6788 25.4269 22.1545 25.8889 21.554 27.2284C 21.323 27.6904 21.2768 28.1985 21.3692 28.6604C 17.9047 29.7229 14.5789 31.9401 11.253 33.5106C 8.29666 34.8964 5.20175 36.0512 2.24542 37.437C 1.55253 37.7604 0.859637 38.0837 0.166747 38.4533C -0.156602 38.638 0.0281686 39.1462 0.39771 39.0538C 0.998215 38.9152 1.55253 38.7304 2.15303 38.5456C 5.34033 37.5294 8.38904 36.0051 11.3916 34.6193C 14.6712 33.0949 18.6438 31.6629 21.5078 29.3533C 21.7849 30.0924 22.2468 30.7391 22.8474 31.2472C 24.2331 32.402 26.1732 32.2173 27.6052 31.2472C 28.6214 30.5543 29.1757 29.0762 28.1595 28.1985C 30.423 26.8589 33.2869 24.5955 36.0585 25.1036C 37.6752 26.3508 38.9686 27.6904 40.0772 29.5381C 41.232 31.5244 41.9711 33.6954 43.0336 35.6817C 41.8325 36.6056 41.0011 37.9451 41.9249 39.3771C 42.8488 40.8553 45.0198 41.6406 46.6828 41.2248C 47.9762 40.8553 49.2234 39.6543 48.9924 38.1761C 48.8538 37.1137 47.699 35.8665 46.5904 36.3746C 46.6366 36.3284 46.6366 36.236 46.6366 36.1898C 46.3132 32.9563 45.528 29.5381 44.3731 26.4894C 47.1909 26.8127 49.6391 27.6904 52.0411 29.03C 51.9949 29.1223 51.9949 29.2609 52.0411 29.3995C 53.0112 31.8939 54.1198 34.3421 55.367 36.7441C 58.6005 43.1187 62.6654 49.0776 67.3309 54.4359C 70.5182 58.1313 74.0288 61.5496 77.8166 64.6907C 80.8653 67.1851 84.1912 69.7719 87.7481 71.712C 86.3623 71.5734 84.9765 71.481 83.7293 71.481C 82.9902 70.5572 81.5121 69.4486 80.311 69.5409C 78.9715 69.6333 78.1862 71.0653 78.0938 72.2663C 77.9552 73.5597 78.6019 74.8993 79.8029 75.4074C 80.8192 75.8231 82.1587 75.6846 82.8978 74.8069C 86.8704 75.4074 89.642 77.3013 92.6445 79.8419C 92.6445 79.8419 92.6907 79.8881 92.7369 79.8881C 88.5795 81.4125 84.6993 83.8607 81.3735 86.7246C 81.3273 86.7708 81.3273 86.7708 81.2811 86.817C 80.4034 86.0317 79.0176 86.2627 78.3248 87.2789C 77.3085 88.8495 77.7704 91.4825 78.8329 92.9144C 79.8029 94.254 81.743 95.0855 83.2674 94.1616C 84.1912 93.6073 84.9303 92.2215 84.376 91.2515C 84.4222 91.2515 84.4684 91.2053 84.5146 91.2053C 88.9953 88.6647 93.245 86.4475 98.3262 85.6622C 99.9429 89.1728 100.682 92.083 100.082 96.0093L 100.082 96.0555C 98.8805 96.656 98.5571 98.2266 98.9729 99.4738C 99.4348 100.86 100.867 101.552 102.299 101.552C 103.731 101.552 105.717 100.721 105.948 99.1042C 106.133 97.9494 105.117 96.887 104.008 96.7022C 105.117 93.4687 105.671 89.7733 105.994 86.2165C 106.641 87.048 107.38 87.787 108.165 88.4799C 107.611 88.9419 107.288 89.7271 107.38 90.5124C 107.519 92.0368 108.812 93.5149 110.105 94.3002C 111.075 94.9007 112.369 95.0855 113.339 94.4388C 119.298 100.213 120.083 109.267 125.441 115.41C 125.626 115.641 125.811 115.826 125.996 116.011C 126.273 116.334 126.735 115.918 126.504 115.595C 126.319 115.364 126.18 115.133 125.996 114.902C 122.3 109.544 120.683 102.753 117.127 97.3489C 116.249 95.9631 115.233 94.7159 113.847 93.5611C 114.309 92.6373 113.986 91.5286 113.293 90.8358L 113.385 90.7896C 113.662 89.7733 113.755 88.7109 113.616 87.6947C 113.477 86.817 113.2 85.9855 112.692 85.1541C 111.861 83.7221 109.967 81.782 108.165 82.0592C 107.934 82.1053 107.888 82.4287 108.073 82.5673C 109.412 83.4911 110.752 83.7683 111.722 85.2002C 112.784 86.7246 113.2 88.6185 112.646 90.4662C 112.6 90.6048 112.646 90.6972 112.646 90.7896C 112.646 90.8358 112.646 90.882 112.646 90.9281C 112.923 91.6672 113.524 92.4525 113.246 93.1454C 113.015 93.1916 112.831 93.4226 112.784 93.6997L 112.738 93.7459C 111.907 94.3002 110.937 93.9769 110.198 93.4687C 109.551 93.0068 108.858 92.2677 108.535 91.5286C 108.119 90.651 108.211 88.9881 109.597 89.0804C 110.105 89.1266 110.244 88.5723 110.013 88.2952C 110.521 86.9556 109.643 85.2002 108.581 84.3688C 108.35 84.2302 108.027 84.5074 108.165 84.7383C 108.535 85.3388 108.812 85.9393 108.997 86.586C 109.135 87.0941 109.135 87.6023 109.228 88.1104C 109.043 88.1104 108.858 88.1566 108.72 88.249C 107.98 87.1403 107.103 85.9855 106.087 85.1541C 106.133 84.5997 106.133 84.0454 106.179 83.4911C 106.225 82.1515 106.087 80.6272 105.486 79.3338C 107.149 79.1952 108.211 77.8094 109.32 76.6546C 110.521 75.3612 111.722 74.0678 112.784 72.6358C 113.154 72.1739 113.477 71.6658 113.847 71.1577C 113.893 71.2963 113.986 71.4348 114.124 71.5272C 114.54 71.7582 114.956 71.9892 115.371 72.1739C 117.589 73.2364 119.991 73.8369 122.439 73.9754C 124.795 74.114 127.705 74.0678 129.737 72.8206C 129.876 72.913 130.107 72.8668 130.107 72.6358C 130.107 72.5435 130.107 72.4511 130.107 72.3125C 130.245 67.7856 127.659 62.6582 125.395 58.9166C 122.67 54.4359 119.021 50.6481 114.678 47.738C 115.787 47.2299 116.942 46.7217 118.05 46.1674C 119.713 45.3822 121.561 44.3659 122.162 42.5182C 122.439 42.5644 122.716 42.6106 122.993 42.6568C 123.27 42.703 123.409 42.472 123.409 42.2873C 123.963 42.1025 124.425 41.5482 124.61 40.9477C 124.933 39.8852 124.702 38.4995 124.656 37.3908C 124.61 36.0512 124.656 34.7117 124.379 33.4183C 124.379 33.3259 124.286 33.2335 124.194 33.2335C 124.056 33.1873 123.825 33.2335 123.825 33.4183C 123.594 34.804 124.656 41.6868 122.3 41.3634C 122.162 41.3634 122.069 41.4096 121.977 41.5482C 118.559 40.5319 115.741 37.8989 112.646 36.1898C 109.597 34.4807 106.318 33.1873 102.945 32.2634C 95.416 30.2772 87.6095 31.2472 80.1263 29.1223C 79.572 28.9838 79.2486 29.769 79.8029 30C 83.2674 31.6167 87.4247 31.6629 91.1663 31.8015C 95.2775 31.9863 99.2962 32.3096 103.269 33.4645C 107.149 34.5731 110.844 36.236 114.263 38.3609C 116.618 39.839 118.836 41.5944 121.515 42.2873C 119.667 44.5507 117.358 45.336 114.725 46.537C 114.355 46.7218 113.939 46.9065 113.57 47.0913C 111.768 47.969 109.967 48.9852 108.304 50.14C 104.008 53.004 99.9891 56.6532 97.1714 60.9491C 96.9404 61.3186 97.4485 61.7344 97.7257 61.3648C 99.712 59.009 101.744 56.7918 103.962 54.7593C 106.133 55.7293 108.258 56.5146 110.29 57.7618C 112.276 59.009 113.847 60.5796 115.648 61.9653C 115.279 65.5684 114.124 68.6633 111.999 71.5734C 110.336 73.8369 107.842 77.4861 105.07 78.5023C 104.47 77.5785 103.638 76.8856 102.391 76.6546C 101.975 76.5622 101.837 77.1165 102.206 77.3013C 105.394 78.6409 105.394 81.9206 105.07 84.9693C 104.978 85.6622 104.886 86.3551 104.839 87.0018C 104.47 90.1429 103.685 93.284 103.407 96.4713C 103.407 96.5175 103.407 96.5636 103.407 96.6098C 103.223 96.656 103.176 96.887 103.269 97.0256C 103.869 97.6723 105.255 97.9032 104.793 99.1504C 104.377 100.213 102.992 100.767 101.929 100.675C 99.8043 100.49 99.0191 98.088 100.543 96.7022C 100.682 96.5637 100.682 96.3327 100.59 96.1941C 100.59 96.1941 100.59 96.1479 100.636 96.1479C 101.883 92.7758 101.467 88.3414 99.1115 85.5236C 99.2038 85.5236 99.2962 85.4774 99.3886 85.4774C 99.7582 85.4312 99.8043 84.8769 99.3886 84.8769C 93.8917 84.5997 88.5795 87.6947 84.0065 90.3738C 83.8217 90.5124 83.7755 90.6972 83.7755 90.8358C 83.6831 90.882 83.6369 90.9281 83.6369 91.0205C 83.4983 91.8058 83.6831 92.4987 82.9902 93.1454C 82.0664 93.9769 80.6806 93.6073 79.8953 92.822C 79.11 92.0368 78.8329 90.7896 78.7867 89.7271C 78.7867 89.2652 78.7405 88.8033 78.8791 88.3876C 79.0638 87.787 80.0339 86.6784 80.7268 87.5561C 80.9115 87.8332 81.2811 87.787 81.4659 87.6485C 81.6044 87.6947 81.743 87.6947 81.8816 87.5561C 85.6694 84.415 89.7805 82.1515 94.1688 80.0729C 94.4922 79.8881 94.3536 79.38 93.9841 79.4724C 93.6607 79.5648 93.3836 79.6571 93.0602 79.7495C 93.1064 79.6571 93.1064 79.6109 93.0602 79.5185C 90.9354 76.2851 86.8704 74.3912 83.1288 73.9292C 82.9902 73.9292 82.8978 73.9754 82.8054 74.0216C 82.6207 73.883 82.3897 73.883 82.1588 74.0678C 80.7268 75.4536 78.7405 74.0678 79.0176 72.2663C 79.11 71.8044 79.2948 71.2501 79.6643 70.9729C 80.2648 70.511 80.8654 70.7881 81.4197 71.1115C 82.0664 71.481 82.6207 72.0353 83.2212 72.4511C 83.3136 72.5897 83.4521 72.7282 83.6831 72.7282C 85.6694 72.8206 87.5633 72.913 89.5034 73.2364C 90.2425 73.3749 90.9815 73.5135 91.6744 73.6983C 93.4298 74.1602 95.0465 74.8531 96.7094 75.4998C 96.8018 75.6846 97.079 75.7769 97.2638 75.6846C 97.7257 75.8693 98.1876 76.0541 98.6495 76.1927C 98.9267 76.2851 99.1115 75.8693 98.8805 75.6846C 98.511 75.3612 98.049 75.0841 97.6333 74.8531C 98.9267 70.5572 101.052 66.677 103.962 63.2587C 104.193 62.9816 103.731 62.612 103.5 62.8892C 103.13 63.2587 102.807 63.6283 102.484 64.044C 101.929 64.044 101.329 64.4597 100.774 64.5983C 100.174 64.6907 99.5734 64.5983 98.9729 64.6445C 98.6033 64.6907 98.6033 65.1526 98.8805 65.2912C 99.481 65.5684 100.543 65.6146 101.421 65.3836C 99.3886 68.109 97.8643 71.2039 96.8942 74.4836C 94.7693 73.3287 92.2287 72.5896 89.6881 72.1277C 85.8542 69.2176 81.743 66.7232 78.0476 63.5821C 74.3984 60.4872 70.9801 57.1151 67.839 53.5121C 63.5431 48.5233 59.8477 43.0725 56.7528 37.2523C 57.9538 37.1137 59.1086 36.0051 59.3858 34.804C 59.8477 32.8178 58.4619 30.6929 56.568 30.0924C 55.2284 25.2884 50.4706 20.6229 45.4356 19.93C 45.3432 19.93 45.2508 19.93 45.2046 19.9762C 44.9274 19.8838 44.6503 19.7914 44.3731 19.7452C 44.3269 19.7452 44.2808 19.7452 44.2346 19.699C 44.5117 19.5143 44.7889 19.2371 45.0198 19.0061C 45.1122 19.0523 45.2046 19.0985 45.297 19.0523C 45.9437 18.8676 46.5442 18.5442 47.1447 18.2671C 47.6528 18.0823 48.1609 17.8975 48.6229 17.5742C 50.6553 18.96 53.2883 20.0224 55.4132 20.2072C 55.6903 20.2072 55.7365 19.8376 55.5056 19.7452C 54.0736 19.0523 52.503 18.6366 51.0711 17.9437C 49.6391 17.2046 48.3919 16.1884 47.0061 15.3569C 46.6828 15.1722 46.3132 15.5879 46.5442 15.865C 46.5442 15.865 46.498 15.865 46.498 15.9112C 45.8975 16.4656 45.4356 17.1584 44.8813 17.8051C 44.3269 18.4056 43.5879 18.8676 43.1259 19.5143C 42.895 19.5143 42.7102 19.5143 42.5254 19.5605C 42.2483 19.6528 42.2021 19.9762 42.4792 20.1148C 42.9874 20.3457 43.5879 20.2534 44.096 20.3919C 44.6503 20.5305 45.1584 20.7615 45.7127 20.7615C 45.7127 20.7615 45.7127 20.7615 45.7589 20.7615C 50.563 23.0711 53.7041 25.4731 55.8289 30.3234C 55.8751 30.3695 55.8751 30.4619 55.9213 30.5081C 55.9213 30.6005 55.9675 30.6929 56.0599 30.7391C 57.2609 31.5244 58.4619 32.3096 58.5081 33.9726C 58.5543 35.6355 57.4457 36.1436 56.1985 36.236C 55.0898 34.1573 54.0736 31.9863 53.1497 29.8152C 53.4269 29.9076 53.7041 29.5843 53.4269 29.3071C 50.9325 26.9513 47.5142 25.7041 44.096 25.5655C 43.9112 25.5655 43.7726 25.6579 43.6802 25.7965C 43.4031 25.7503 43.1259 25.935 43.2183 26.3046C 43.9574 29.6305 44.8351 33.0487 45.8051 36.2822C 45.8513 36.467 46.0823 36.5594 46.267 36.5594C 46.1285 36.6979 46.1746 36.9289 46.3594 37.0213C 47.3295 37.5294 48.2995 37.9451 47.699 39.2847C 47.1909 40.3934 45.9899 40.5781 44.9274 40.3472C 44.0498 40.1624 42.895 39.6081 42.5716 38.6842C 42.2021 37.7604 43.0335 37.0213 43.6341 36.4208C 43.8188 36.236 43.7726 36.0512 43.6802 35.9127C 43.2183 33.4645 41.9711 31.0162 40.6777 28.8452C 39.6153 27.0437 38.1833 25.1498 36.1508 24.3183C 36.0585 24.2721 35.9661 24.2721 35.8737 24.3183C 32.8712 23.8564 30.2382 26.166 27.8362 27.6442C 27.559 27.7828 27.6514 28.1523 27.8362 28.2447C 27.7438 28.2909 27.6976 28.3833 27.7438 28.5218C 28.4367 30.7391 25.157 31.6629 23.6788 30.7391C 23.0783 30.3695 22.4778 29.6305 22.293 28.8452C 22.2468 28.568 22.2468 28.2909 22.293 28.0137C 22.5702 26.8589 23.8174 26.5817 24.7874 26.9051C 25.0646 26.9975 25.3418 26.7665 25.3418 26.5356C 25.3418 26.5356 25.3418 26.5356 25.3879 26.5356C 28.6214 23.5792 31.6701 21.4082 35.9661 20.3919C 36.9361 20.3457 37.9062 20.2072 38.8762 20.1148C 39.2458 20.0686 39.1072 19.5605 38.7838 19.5605C 38.4143 19.5605 38.0447 19.5605 37.629 19.5605C 36.9361 19.5143 36.2432 19.5143 35.5503 19.6067C 36.9823 17.9899 38.4143 16.4655 40.1696 15.1722C 41.9249 13.8788 43.865 13.0935 45.7127 12.0311C 45.7127 12.0311 45.7127 12.0311 45.7589 12.0311C 48.7152 12.4006 51.5792 12.6778 54.4431 13.6016C 57.0761 14.4793 59.3858 15.865 61.9264 16.9737C 62.2035 17.1122 62.4345 16.6503 62.2035 16.4656C 61.0025 15.4493 59.5705 14.5255 58.0462 13.7864C 58.97 13.6478 59.9401 13.4168 60.8639 13.2321C 61.834 13.0473 62.804 12.9549 63.7741 12.6778C 65.0675 16.2808 68.3933 19.0523 72.3659 19.7452C 77.5857 20.6691 82.5283 16.9737 82.8978 11.6153C 83.2212 7.04225 79.8491 2.37679 75.3684 1.36055C 77.3085 1.45293 79.11 1.91486 80.9577 3.02348C 83.3598 4.45546 84.9303 6.58032 86.8704 8.47422C 87.009 8.6128 87.2399 8.52041 87.3323 8.33564C 87.4247 8.47422 87.5633 8.5666 87.7481 8.5666C 92.0902 8.47422 96.3861 8.88995 100.636 9.90619C 104.886 10.9224 108.673 12.7701 112.738 14.2945C 112.831 14.5717 113.154 14.8026 113.431 14.5255C 115.187 12.4468 118.42 11.7077 121.053 11.5229C 123.316 11.3382 124.841 11.9849 126.458 13.0473C 122.901 13.7864 120.868 18.2671 120.406 21.5006C 119.806 25.6117 121.145 29.8614 123.963 32.9101C 124.009 33.0487 124.148 33.1873 124.286 33.2335C 124.333 33.2335 124.333 33.2335 124.379 33.2335C 124.471 33.2797 124.564 33.2335 124.656 33.2335C 129.275 32.633 132.924 28.5218 133.433 23.9026C 133.802 20.0224 131.77 15.3569 128.074 13.6016ZM 116.388 62.1039C 116.388 61.9653 116.295 61.873 116.203 61.8268C 113.755 58.3623 108.766 55.3598 104.655 54.2512C 106.41 52.6806 108.304 51.2486 110.336 50.0014C 111.445 49.3085 112.554 48.7542 113.708 48.1999C 113.755 48.2923 113.801 48.3847 113.893 48.4771C 118.004 51.2024 121.561 54.7593 124.194 58.9166C 125.58 61.0415 126.735 63.3511 127.612 65.7531C 128.398 67.878 128.721 70.1414 129.414 72.2663C 126.827 72.3587 124.471 73.0978 121.792 72.7744C 119.205 72.4973 116.757 71.6658 114.447 70.4648C 114.355 70.4186 114.216 70.3724 114.124 70.4186C 115.648 67.878 116.711 65.0141 116.388 62.1039ZM 46.9599 16.1884C 47.2833 16.5117 47.6528 16.7889 48.0224 17.0661C 47.5604 17.2046 47.1447 17.3894 46.729 17.5742C 46.4518 17.7128 46.1746 17.8051 45.8975 17.9437C 46.3594 17.4356 46.7752 16.8813 46.9599 16.1884ZM 78.9253 4.54784C 80.773 6.16458 81.8354 8.6128 81.7892 11.061C 81.743 16.0036 77.2161 19.3757 72.4583 18.498C 68.9015 17.8513 65.8065 15.3107 64.7441 11.9387C 64.4208 10.9686 64.2822 9.95238 64.3746 8.88995C 64.6055 4.40926 68.3933 1.45293 72.5507 1.91486C 72.5969 1.91486 72.6431 1.96105 72.6893 1.96105C 74.9989 2.46917 77.1237 2.9311 78.9253 4.54784ZM 132.416 23.533C 132.047 28.0137 128.629 31.0162 124.517 32.1249C 122.208 29.4457 120.961 26.0736 121.192 22.4706C 121.423 18.498 123.316 15.8189 126.504 13.694C 129.968 15.9574 132.832 19.0061 132.416 23.533Z"/>
</defs>
</svg>
