<svg width="14" height="17" viewBox="0 0 14 17" fill="none" xmlns="http://www.w3.org/2000/svg">
<path d="M13.4544 9.74448C13.1737 9.74448 12.933 9.96837 12.9112 10.2606C12.6596 13.414 10.1109 15.873 7.01162 15.873C3.74828 15.873 1.09021 13.1256 1.09021 9.74828C1.09021 6.4241 3.66442 3.70707 6.85848 3.62359C6.94235 3.61979 7.00798 3.6881 7.00798 3.77538V5.68413C7.00798 6.16226 7.5148 6.45066 7.90494 6.19641L11.4126 3.64256C11.7772 3.4035 11.7772 2.85326 11.4126 2.61419L7.90859 0.0944941C7.51845 -0.159753 7.01162 0.128647 7.01162 0.606782V2.34097C7.01162 2.42446 6.94964 2.49276 6.86942 2.49276C3.0628 2.57245 0 5.79038 0 9.74828C0 13.7555 3.13937 17 7.01162 17C10.687 17 13.6987 14.0894 13.9977 10.3554C14.0269 10.0253 13.7717 9.74448 13.4544 9.74448Z" fill="#263238"/>
</svg>
